<?xml version="1.0" encoding="UTF-8" standalone="no"?>
<!-- Created with Inkscape (http://www.inkscape.org/) -->

<svg
   width="1024"
   height="1024"
   viewBox="0 0 270.93334 270.93333"
   version="1.1"
   id="svg5"
   inkscape:version="1.2.1 (9c6d41e4, 2022-07-14)"
   sodipodi:docname="twister.svg"
   inkscape:export-filename="twister64.webp"
   inkscape:export-xdpi="24"
   inkscape:export-ydpi="24"
   xmlns:inkscape="http://www.inkscape.org/namespaces/inkscape"
   xmlns:sodipodi="http://sodipodi.sourceforge.net/DTD/sodipodi-0.dtd"
   xmlns="http://www.w3.org/2000/svg"
   xmlns:svg="http://www.w3.org/2000/svg">
  <sodipodi:namedview
     id="namedview7"
     pagecolor="#505050"
     bordercolor="#eeeeee"
     borderopacity="1"
     inkscape:showpageshadow="0"
     inkscape:pageopacity="0"
     inkscape:pagecheckerboard="0"
     inkscape:deskcolor="#505050"
     inkscape:document-units="mm"
     showgrid="false"
     inkscape:zoom="0.43243682"
     inkscape:cx="248.59123"
     inkscape:cy="313.34057"
     inkscape:window-width="1680"
     inkscape:window-height="997"
     inkscape:window-x="0"
     inkscape:window-y="25"
     inkscape:window-maximized="1"
     inkscape:current-layer="layer1" />
  <defs
     id="defs2" />
  <g
     inkscape:label="Layer 1"
     inkscape:groupmode="layer"
     id="layer1">
    <path
       id="rect118-5-4"
       style="display:none;fill:#00a8ff;fill-opacity:1;stroke-width:0.167874"
       d="m 22.857359,119.89616 a 27.112661,27.112661 0 0 0 27.11255,27.11307 H 104.19554 V 136.37526 H 50.215889 a 16.478861,16.478863 0 0 1 -16.4791,-16.47858 16.478861,16.478863 0 0 1 5.44928,-12.24215 l -8.09304,-7.19956 a 27.112661,27.112661 0 0 0 -8.23567,19.44119 z m 54.3481,-16.47858 H 104.19554 V 92.78361 H 77.205459 Z"
       inkscape:label="new" />
    <path
       id="path5965"
       style="display:none;fill:#00a8ff;fill-opacity:1;stroke-width:0.167874"
       d="M 180.21665,119.77357 A 27.112661,27.112661 0 0 0 153.10409,92.660494 H 98.87846 v 10.633976 h 53.97965 a 16.478861,16.478863 0 0 1 16.4791,16.47857 16.478861,16.478863 0 0 1 -16.4791,16.47911 h -13.3103 v 10.63397 h 13.55628 a 27.112661,27.112661 0 0 0 27.11256,-27.11255 z m -54.34811,16.47858 H 98.878461 v 10.63397 h 26.990079 z"
       inkscape:label="old" />
    <g
       id="g6226"
       transform="matrix(1.530317,0,0,1.530317,-23.985533,-48.012625)">
      <path
         id="path6182"
         style="display:inline;fill:#00a8ff;fill-opacity:1;stroke:none;stroke-width:9.06499;stroke-linecap:round;stroke-linejoin:bevel;stroke-dasharray:none;stroke-opacity:0;paint-order:normal"
         d="M 130.06776,58.689306 A 27.112661,26.247385 0 0 0 104.19596,40.288879 27.112661,26.247385 0 0 0 77.082878,66.536373 V 119.03084 H 95.179965 V 66.536373 a 9.0156641,8.7279377 0 0 1 9.015995,-8.72815 9.0156641,8.7279377 0 0 1 9.01547,8.72815 v 8.806697 z" />
      <path
         id="path6186"
         style="display:inline;fill:#00a8ff;fill-opacity:1;stroke:none;stroke-width:9.06499;stroke-linecap:round;stroke-linejoin:bevel;stroke-dasharray:none;stroke-opacity:0;paint-order:normal"
         d="M 42.988579,94.024038 A 26.247385,27.112661 0 0 0 24.588152,119.89585 26.247385,27.112661 0 0 0 50.835646,147.00893 H 103.33011 V 128.91184 H 50.835646 a 8.7279377,9.0156641 0 0 1 -8.72815,-9.01599 8.7279377,9.0156641 0 0 1 8.72815,-9.01547 h 8.806697 z" />
      <path
         id="path6188"
         style="display:inline;fill:#00a8ff;fill-opacity:1;stroke:none;stroke-width:9.06499;stroke-linecap:round;stroke-linejoin:bevel;stroke-dasharray:none;stroke-opacity:0;paint-order:normal"
         d="m 78.323312,181.10323 a 27.112661,26.247385 0 0 0 25.871808,18.40042 27.112661,26.247385 0 0 0 27.11308,-26.24749 v -52.49447 h -18.09709 v 52.49447 a 9.0156641,8.7279377 0 0 1 -9.01599,8.72815 9.0156641,8.7279377 0 0 1 -9.01547,-8.72815 v -8.8067 z" />
      <path
         id="path6190"
         style="display:inline;fill:#00a8ff;fill-opacity:1;stroke:none;stroke-width:9.06499;stroke-linecap:round;stroke-linejoin:bevel;stroke-dasharray:none;stroke-opacity:0;paint-order:normal"
         d="m 165.4025,145.76849 a 26.247385,27.112661 0 0 0 18.40042,-25.8718 26.247385,27.112661 0 0 0 -26.24749,-27.113083 H 105.06097 V 110.8807 h 52.49446 a 8.7279377,9.0156641 0 0 1 8.72815,9.01599 8.7279377,9.0156641 0 0 1 -8.72815,9.01546 h -8.8067 z" />
      <rect
         style="display:inline;fill:#0097e6;fill-opacity:1;stroke-width:0.167874"
         id="rect118"
         width="54.225319"
         height="54.225319"
         x="77.082878"
         y="92.783607" />
    </g>
  </g>
</svg>
